<svg width="30" height="30" viewBox="0 0 30 30" fill="none" xmlns="http://www.w3.org/2000/svg">
<path d="M10.2143 24.7855L24.7855 10.2145C25.467 9.5329 25.8077 9.19212 25.99 8.8245C26.3366 8.12506 26.3366 7.30387 25.99 6.60442C25.8077 6.23681 25.467 5.89602 24.7855 5.21446C24.1038 4.5329 23.7631 4.19213 23.3955 4.00995C22.696 3.66335 21.8748 3.66335 21.1753 4.00995C20.8077 4.19213 20.467 4.5329 19.7855 5.21446L5.21434 19.7855C4.49177 20.508 4.13048 20.8694 3.94018 21.3287C3.74988 21.7881 3.74988 22.2991 3.74988 23.321V26.2499H6.6788C7.70069 26.2499 8.21163 26.2499 8.67105 26.0596C9.13048 25.8694 9.49177 25.508 10.2143 24.7855Z" stroke="#1C46C3" stroke-width="3" stroke-linecap="round" stroke-linejoin="round"/>
<path d="M15 26.25H22.5" stroke="#1C46C3" stroke-width="3" stroke-linecap="round" stroke-linejoin="round"/>
<path d="M18.125 6.875L23.125 11.875" stroke="#1C46C3" stroke-width="3" stroke-linecap="round" stroke-linejoin="round"/>
</svg>
