<svg width="30" height="30" viewBox="0 0 30 30" fill="none" xmlns="http://www.w3.org/2000/svg">
<path d="M15.625 3.75H14.375C13.6846 3.75 13.125 4.30964 13.125 5V6.25C13.125 6.94036 13.6846 7.5 14.375 7.5H15.625C16.3154 7.5 16.875 6.94036 16.875 6.25V5C16.875 4.30964 16.3154 3.75 15.625 3.75Z" stroke="black" stroke-width="3"/>
<path d="M15.625 13.125H14.375C13.6846 13.125 13.125 13.6846 13.125 14.375V15.625C13.125 16.3154 13.6846 16.875 14.375 16.875H15.625C16.3154 16.875 16.875 16.3154 16.875 15.625V14.375C16.875 13.6846 16.3154 13.125 15.625 13.125Z" stroke="black" stroke-width="3"/>
<path d="M15.625 22.5H14.375C13.6846 22.5 13.125 23.0596 13.125 23.75V25C13.125 25.6904 13.6846 26.25 14.375 26.25H15.625C16.3154 26.25 16.875 25.6904 16.875 25V23.75C16.875 23.0596 16.3154 22.5 15.625 22.5Z" stroke="black" stroke-width="3"/>
</svg>
