<svg width="30" height="30" viewBox="0 0 30 30" fill="none" xmlns="http://www.w3.org/2000/svg">
<path d="M9.19245 22.5C6.53855 22.5 5.2116 22.5 4.26687 21.9335C3.64942 21.5633 3.15198 21.0339 2.83094 20.4052C2.33974 19.4434 2.47178 18.1716 2.73585 15.6281C2.95629 13.5049 3.06652 12.4432 3.60855 11.6635C3.96442 11.1516 4.44574 10.732 5.00997 10.4419C5.86935 10 6.97705 10 9.19245 10H20.8075C23.023 10 24.1306 10 24.99 10.4419C25.5543 10.732 26.0356 11.1516 26.3915 11.6635C26.9335 12.4432 27.0438 13.5049 27.2641 15.6281C27.5283 18.1716 27.6603 19.4434 27.169 20.4052C26.848 21.0339 26.3506 21.5633 25.7331 21.9335C24.7884 22.5 23.4615 22.5 20.8075 22.5" stroke="black" stroke-width="3"/>
<path d="M21.25 10V7.5C21.25 5.14298 21.25 3.96446 20.5177 3.23224C19.7855 2.5 18.607 2.5 16.25 2.5H13.75C11.393 2.5 10.2145 2.5 9.48224 3.23224C8.75 3.96446 8.75 5.14298 8.75 7.5V10" stroke="black" stroke-width="3" stroke-linejoin="round"/>
<path d="M17.4859 20H12.5141C11.6575 20 11.2292 20 10.8648 20.1361C10.3789 20.3175 9.96283 20.67 9.68275 21.1374C9.47269 21.488 9.36881 21.9389 9.16105 22.8405C8.83641 24.2494 8.6741 24.9537 8.78449 25.5186C8.93169 26.2717 9.39046 26.9092 10.0282 27.2467C10.5064 27.5 11.1757 27.5 12.5141 27.5H17.4859C18.8244 27.5 19.4936 27.5 19.9719 27.2467C20.6095 26.9092 21.0684 26.2717 21.2155 25.5186C21.3259 24.9537 21.1636 24.2494 20.839 22.8405C20.6313 21.9389 20.5273 21.488 20.3173 21.1374C20.0371 20.67 19.6211 20.3175 19.1353 20.1361C18.7708 20 18.3425 20 17.4859 20Z" stroke="black" stroke-width="3" stroke-linejoin="round"/>
<path d="M22.5 15H22.5113" stroke="black" stroke-width="3" stroke-linecap="round" stroke-linejoin="round"/>
</svg>
